<mxfile host="app.diagrams.net" modified="2024-04-16T21:50:35.811Z" agent="Mozilla/5.0 (Windows NT 10.0; Win64; x64) AppleWebKit/537.36 (KHTML, like Gecko) Chrome/123.0.0.0 Safari/537.36" etag="8FD0Yrk_1SMEFv-0xsRS" version="24.2.5" type="device">
  <diagram name="Page-1" id="ouBExnU2TJHJtwTOVz-W">
    <mxGraphModel dx="1185" dy="673" grid="1" gridSize="10" guides="1" tooltips="1" connect="1" arrows="1" fold="1" page="1" pageScale="1" pageWidth="850" pageHeight="1100" math="0" shadow="0">
      <root>
        <mxCell id="0" />
        <mxCell id="1" parent="0" />
        <mxCell id="5hKmsU_y1pUXfxp5PMt9-1" value="" style="shape=umlActor;verticalLabelPosition=bottom;verticalAlign=top;html=1;outlineConnect=0;" vertex="1" parent="1">
          <mxGeometry x="610" y="430" width="40" height="80" as="geometry" />
        </mxCell>
        <mxCell id="5hKmsU_y1pUXfxp5PMt9-2" value="" style="whiteSpace=wrap;html=1;aspect=fixed;" vertex="1" parent="1">
          <mxGeometry x="270" y="430" width="80" height="80" as="geometry" />
        </mxCell>
        <mxCell id="5hKmsU_y1pUXfxp5PMt9-3" value="" style="endArrow=classic;html=1;rounded=0;exitX=0.5;exitY=1;exitDx=0;exitDy=0;" edge="1" parent="1" source="5hKmsU_y1pUXfxp5PMt9-2">
          <mxGeometry width="50" height="50" relative="1" as="geometry">
            <mxPoint x="420" y="670" as="sourcePoint" />
            <mxPoint x="310" y="840" as="targetPoint" />
          </mxGeometry>
        </mxCell>
        <mxCell id="5hKmsU_y1pUXfxp5PMt9-4" value="" style="endArrow=classic;html=1;rounded=0;exitX=0.5;exitY=1;exitDx=0;exitDy=0;" edge="1" parent="1">
          <mxGeometry width="50" height="50" relative="1" as="geometry">
            <mxPoint x="629.71" y="510" as="sourcePoint" />
            <mxPoint x="629.71" y="840" as="targetPoint" />
          </mxGeometry>
        </mxCell>
        <mxCell id="5hKmsU_y1pUXfxp5PMt9-5" value="" style="endArrow=classic;html=1;rounded=0;" edge="1" parent="1">
          <mxGeometry width="50" height="50" relative="1" as="geometry">
            <mxPoint x="630" y="540" as="sourcePoint" />
            <mxPoint x="310" y="540" as="targetPoint" />
          </mxGeometry>
        </mxCell>
        <mxCell id="5hKmsU_y1pUXfxp5PMt9-6" value="" style="endArrow=classic;html=1;rounded=0;" edge="1" parent="1">
          <mxGeometry width="50" height="50" relative="1" as="geometry">
            <mxPoint x="310" y="620" as="sourcePoint" />
            <mxPoint x="630" y="620" as="targetPoint" />
          </mxGeometry>
        </mxCell>
        <mxCell id="5hKmsU_y1pUXfxp5PMt9-7" value="" style="endArrow=classic;html=1;rounded=0;" edge="1" parent="1">
          <mxGeometry width="50" height="50" relative="1" as="geometry">
            <mxPoint x="310" y="770" as="sourcePoint" />
            <mxPoint x="630" y="770" as="targetPoint" />
          </mxGeometry>
        </mxCell>
        <mxCell id="5hKmsU_y1pUXfxp5PMt9-8" value="" style="endArrow=classic;html=1;rounded=0;" edge="1" parent="1">
          <mxGeometry width="50" height="50" relative="1" as="geometry">
            <mxPoint x="630" y="690" as="sourcePoint" />
            <mxPoint x="310" y="690" as="targetPoint" />
          </mxGeometry>
        </mxCell>
        <mxCell id="5hKmsU_y1pUXfxp5PMt9-10" value="Autentificaci칩n con credenciales&amp;nbsp;" style="text;html=1;align=center;verticalAlign=middle;whiteSpace=wrap;rounded=0;" vertex="1" parent="1">
          <mxGeometry x="400" y="500" width="150" height="30" as="geometry" />
        </mxCell>
        <mxCell id="5hKmsU_y1pUXfxp5PMt9-11" value="Retorno Token en caso de credenciales v치lidos" style="text;html=1;align=center;verticalAlign=middle;whiteSpace=wrap;rounded=0;" vertex="1" parent="1">
          <mxGeometry x="400" y="580" width="150" height="30" as="geometry" />
        </mxCell>
        <mxCell id="5hKmsU_y1pUXfxp5PMt9-12" value="Petici칩n del cliente con el Token adjunto" style="text;html=1;align=center;verticalAlign=middle;whiteSpace=wrap;rounded=0;" vertex="1" parent="1">
          <mxGeometry x="400" y="650" width="150" height="30" as="geometry" />
        </mxCell>
        <mxCell id="5hKmsU_y1pUXfxp5PMt9-13" value="Respuesta del servidor&lt;div&gt;(si el token es v치lido)&lt;/div&gt;" style="text;html=1;align=center;verticalAlign=middle;whiteSpace=wrap;rounded=0;" vertex="1" parent="1">
          <mxGeometry x="400" y="730" width="150" height="30" as="geometry" />
        </mxCell>
        <mxCell id="5hKmsU_y1pUXfxp5PMt9-15" value="Server" style="text;html=1;align=center;verticalAlign=middle;whiteSpace=wrap;rounded=0;" vertex="1" parent="1">
          <mxGeometry x="280" y="380" width="60" height="30" as="geometry" />
        </mxCell>
        <mxCell id="5hKmsU_y1pUXfxp5PMt9-16" value="Client" style="text;html=1;align=center;verticalAlign=middle;whiteSpace=wrap;rounded=0;" vertex="1" parent="1">
          <mxGeometry x="600" y="380" width="60" height="30" as="geometry" />
        </mxCell>
        <mxCell id="5hKmsU_y1pUXfxp5PMt9-17" value="Tiempo" style="text;html=1;align=center;verticalAlign=middle;whiteSpace=wrap;rounded=0;" vertex="1" parent="1">
          <mxGeometry x="280" y="850" width="60" height="30" as="geometry" />
        </mxCell>
        <mxCell id="5hKmsU_y1pUXfxp5PMt9-18" value="Tiempo" style="text;html=1;align=center;verticalAlign=middle;whiteSpace=wrap;rounded=0;" vertex="1" parent="1">
          <mxGeometry x="600" y="850" width="60" height="30" as="geometry" />
        </mxCell>
      </root>
    </mxGraphModel>
  </diagram>
</mxfile>
